HIERARCHY
ROOT hip
{
	OFFSET 0.000000 0.000000 0.000000 
	CHANNELS 6 Xposition Yposition Zposition Xrotation Zrotation Yrotation
	JOINT abdomen
	{
		OFFSET 0.000000 3.402643 0.000000 
		CHANNELS 3 Xrotation Zrotation Yrotation
		JOINT chest
		{
			OFFSET 0.000000 8.438565 -0.680529 
			CHANNELS 3 Xrotation Zrotation Yrotation
			JOINT neck
			{
				OFFSET 0.000000 10.207942 -0.272212 
				CHANNELS 3 Xrotation Zrotation Yrotation
				JOINT head
				{
					OFFSET 0.000000 3.130431 0.000000 
					CHANNELS 3 Xrotation Zrotation Yrotation
					End Site
					{
						OFFSET 0.000000 3.130435 0.000000 
					}
				}
			}
			JOINT lCollar
			{
				OFFSET 3.470700 6.669187 -0.816635 
				CHANNELS 3 Yrotation Zrotation Xrotation
				JOINT lShldr
				{
					OFFSET 3.198488 0.000000 0.000000 
					CHANNELS 3 Zrotation Yrotation Xrotation
					JOINT lForeArm
					{
						OFFSET 10.139888 0.000000 0.000000 
						CHANNELS 3 Yrotation Zrotation Xrotation
						JOINT lHand
						{
							OFFSET 8.370511 0.000000 0.000000 
							CHANNELS 3 Zrotation Yrotation Xrotation
							End Site
							{
								OFFSET 4.083176 0.000000 0.000000 
							}
						}
					}
				}
			}
			JOINT rCollar
			{
				OFFSET -3.470700 6.669187 -0.816635 
				CHANNELS 3 Yrotation Zrotation Xrotation
				JOINT rShldr
				{
					OFFSET -3.198488 0.000000 0.000000 
					CHANNELS 3 Zrotation Yrotation Xrotation
					JOINT rForeArm
					{
						OFFSET -10.139888 0.000000 0.000000 
						CHANNELS 3 Yrotation Zrotation Xrotation
						JOINT rHand
						{
							OFFSET -8.370511 0.000000 0.000000 
							CHANNELS 3 Zrotation Yrotation Xrotation
							End Site
							{
								OFFSET -4.083176 0.000000 0.000000 
							}
						}
					}
				}
			}
		}
	}
	JOINT lThigh
	{
		OFFSET 5.308129 -1.633274 1.361059 
		CHANNELS 3 Xrotation Zrotation Yrotation
		JOINT lShin
		{
			OFFSET -2.041588 -20.007561 0.000000 
			CHANNELS 3 Xrotation Zrotation Yrotation
			JOINT lFoot
			{
				OFFSET 0.000000 -19.190928 -1.224953 
				CHANNELS 3 Xrotation Yrotation Zrotation
				End Site
				{
					OFFSET 0.000000 -2.449906 4.627600 
				}
			}
		}
	}
	JOINT rThigh
	{
		OFFSET -5.308129 -1.633274 1.361059 
		CHANNELS 3 Xrotation Zrotation Yrotation
		JOINT rShin
		{
			OFFSET 2.041588 -20.007561 0.000000 
			CHANNELS 3 Xrotation Zrotation Yrotation
			JOINT rFoot
			{
				OFFSET 0.000000 -19.190928 -1.224953 
				CHANNELS 3 Xrotation Yrotation Zrotation
				End Site
				{
					OFFSET 0.000000 -2.449906 4.627600 
				}
			}
		}
	}
}
MOTION
Frames: 13
Frame Time: 0.033333
0.098516 53.161640 0.162215 -4.228516 3.505859 -137.900391 19.460281 -0.660783 3.120643 -13.134220 0.523635 -0.649248 51.562500 8.076172 2.618559 -83.994141 -6.005860 7.578125 11.824749 -25.000000 15.606723 -10.466778 28.867599 -14.992642 -76.747253 -0.229833 -2.547071 -6.255805 20.817505 -4.160489 -11.358957 25.000000 14.743981 15.044644 -15.005553 -14.345691 89.963127 -0.348157 -3.133489 -9.914993 -55.922108 14.828444 -2.726289 12.133222 31.646086 0.900508 -5.814127 -0.365692 8.390800 1.588305 -5.137637 -5.565067 -1.405786 -12.140118 3.531379 6.253063 0.155547 4.117747 -12.559427 1.937838 
0.215418 53.090477 0.315054 -3.525390 2.978516 -137.118622 19.987957 -0.595253 2.946322 -13.113936 -0.696900 -1.137747 51.562500 8.076172 2.618559 -83.955078 -4.648437 7.265625 11.033301 -25.000000 14.900229 -9.726853 27.586639 -14.752744 -76.398727 -0.057547 -2.617257 -4.955769 20.371746 -3.122901 -10.885180 25.000000 14.304649 14.269873 -14.953306 -14.614979 90.138878 -0.344888 -3.123589 -10.590316 -57.090340 15.181364 -3.311429 12.330175 31.083179 2.304762 -5.801931 -0.539075 7.882182 1.038067 -4.887790 -5.221599 -1.531272 -12.672896 4.081553 6.122238 0.203809 3.700286 -13.014410 2.264302 
0.248331 53.050938 0.395258 -2.998047 2.626977 -136.200974 20.340216 -0.532202 2.781427 -12.929531 -1.221235 -1.559298 51.562500 8.076172 2.618559 -83.632813 -3.642578 7.118519 10.536469 -25.000000 14.523666 -9.687997 26.455965 -14.641744 -76.220009 -0.220392 -2.559530 -4.026299 19.967852 -2.489379 -10.679316 25.000000 14.118418 14.036328 -14.982334 -14.429440 90.318810 -0.566189 -2.762115 -11.081807 -57.581959 15.613566 -3.282200 12.438280 30.717356 3.359875 -5.774751 -0.632116 7.521209 0.417824 -4.621014 -4.808082 -1.450707 -13.187671 4.604368 5.725582 0.399290 2.950764 -13.398156 2.662900 
0.206605 53.035118 0.372129 -2.646484 2.275391 -135.458588 20.342045 -0.250385 2.512137 -12.932487 -1.045479 -1.539554 51.562500 8.076172 2.618559 -82.900391 -3.437500 7.245508 10.051312 -25.000000 14.154933 -10.011229 25.727098 -14.761744 -76.216866 -0.396146 -2.500913 -3.655947 19.444389 -2.403758 -10.554182 25.000000 13.997851 13.432295 -14.949021 -14.321599 90.141968 -0.510875 -2.967321 -10.573024 -57.638721 15.001691 -3.117138 12.639680 30.373905 3.887562 -5.765772 -0.688276 7.178540 0.399775 -4.406051 -4.409185 -1.315304 -12.820591 4.955009 5.756933 0.080082 2.674716 -13.665116 2.567063 
0.082399 53.035118 0.291625 -2.294922 2.099609 -135.087891 19.981390 -0.133897 2.179762 -12.762860 -0.690998 -1.501829 51.562500 8.076172 2.618559 -82.197266 -3.535156 7.724007 9.892749 -25.000000 14.151805 -10.522767 25.059963 -14.378438 -76.750229 -0.063844 -2.605706 -4.005770 19.271467 -2.369306 -10.554182 25.000000 13.997851 13.316074 -14.791692 -14.253568 90.135612 -0.169137 -3.104115 -11.176552 -57.711990 14.935308 -2.609936 12.715651 29.907642 3.536075 -5.794591 -0.657631 7.176942 0.388580 -4.399253 -3.806056 -1.794548 -13.540845 4.958356 6.080847 0.458588 2.530636 -13.475655 3.109496 
-0.051952 53.058838 0.151333 -2.294922 2.099609 -134.912109 19.446846 0.826985 1.038099 -12.771663 -0.173494 -1.433320 51.562500 8.076172 2.618559 -81.347656 -3.798828 8.114588 9.851207 -25.000000 14.096643 -11.263948 24.393255 -14.446791 -77.455330 0.040700 -2.338587 -4.898831 18.984730 -3.442515 -10.554182 25.000000 13.997851 13.017735 -14.585929 -14.026771 90.138878 -0.344888 -3.123589 -11.630604 -57.737038 15.107371 -1.924214 12.588072 30.344042 2.672774 -5.813745 -0.561282 7.481272 0.169187 -4.513991 -3.512224 -1.530159 -14.054914 4.604368 5.725582 0.399290 2.267272 -13.428201 2.671796 
-0.150004 53.074654 0.033793 -2.470703 2.275407 -134.931473 19.446846 0.826985 1.038099 -12.605295 0.356772 -1.376029 51.562500 8.076172 2.618559 -80.664063 -4.042969 8.330079 9.851207 -25.000000 14.096643 -11.386910 24.025175 -14.169833 -78.169159 0.086442 -2.618451 -5.503831 18.674135 -4.135787 -10.509741 25.000000 13.947379 13.017735 -14.585929 -14.026771 89.963127 -0.348157 -3.133489 -12.193560 -57.586617 15.552416 -1.389465 12.150962 30.209654 1.602707 -5.801937 -0.447572 7.845929 0.634826 -4.796003 -3.130194 -1.509104 -14.240611 3.895084 5.739783 0.317291 2.257444 -12.990884 2.433532 
-0.203794 53.050938 -0.014809 -2.646484 2.451172 -134.941391 19.446846 0.826985 1.038099 -12.426170 0.701719 -1.329221 51.562500 8.076172 2.618559 -80.341797 -4.248047 8.749276 9.851207 -25.000000 14.096643 -11.516462 23.642944 -14.301222 -78.520660 0.080093 -2.773111 -5.807635 18.412697 -4.457253 -10.465763 25.000000 13.889079 13.299811 -14.448052 -14.005390 89.963127 -0.348157 -3.133489 -11.901287 -57.209896 15.189902 -1.223083 12.015340 30.416174 0.724260 -5.779945 -0.350518 8.335654 0.125975 -4.830617 -3.285652 -1.449938 -14.755106 3.366283 5.749164 0.417244 2.444110 -12.640161 2.028254 
-0.230239 53.027206 0.048614 -2.998047 2.626977 -134.970505 19.446846 0.826985 1.038099 -12.429229 0.877474 -1.309672 51.562500 8.076172 2.618559 -80.322266 -4.091797 8.652343 9.851207 -25.000000 14.096643 -11.248672 23.141037 -14.471282 -78.869156 -0.092253 -2.703191 -5.875466 18.195528 -4.599347 -10.465763 25.000000 13.889079 14.044848 -14.971653 -14.737004 89.784103 -0.175675 -3.123925 -10.779205 -56.674412 14.831859 -1.563899 11.753551 30.194292 0.548991 -5.770092 -0.335115 8.342189 0.500663 -5.105344 -3.667833 -1.480884 -14.579667 4.079463 5.936337 0.005614 2.179970 -12.399787 1.526549 
-0.273553 52.963947 0.231239 -3.173828 2.802735 -135.156250 19.446846 0.826985 1.038099 -12.607489 1.050196 -1.288950 51.562500 8.076172 2.618559 -80.488281 -4.072266 8.661416 10.259682 -25.000000 14.368981 -10.679513 22.925299 -14.339191 -79.044914 -0.095436 -2.692664 -5.821984 18.103167 -4.968325 -10.723833 25.000000 14.177089 15.109597 -15.676829 -15.575133 89.598770 -0.188890 -2.792057 -8.450318 -55.315929 13.729367 -2.277156 12.015635 30.123255 1.602726 -5.801931 -0.447572 7.467932 0.958267 -5.200360 -4.831016 -1.745853 -15.271405 5.310811 5.722344 0.451253 1.208975 -11.796762 1.252832 
-0.306672 52.829502 0.502308 -3.349610 2.978516 -135.351563 19.446846 0.826985 1.038099 -12.607489 1.050196 -1.288950 51.562500 8.076172 2.618559 -80.996094 -3.847656 8.436844 10.259682 -25.000000 14.368981 -10.236302 22.594774 -14.517736 -79.399422 0.064180 -2.730244 -5.899130 17.885603 -5.109592 -10.679316 25.000000 14.118418 15.754111 -16.386997 -15.671066 89.259941 -0.351467 -2.997407 -7.915806 -54.667637 13.988269 -3.516526 12.251543 29.821899 3.720736 -5.793923 -0.683796 6.566863 1.172714 -5.386238 -6.013390 -2.234558 -15.795671 7.798583 5.690167 0.737035 -0.171254 -11.477957 0.862253 
-0.262380 52.758335 0.861574 -3.349609 2.802734 -135.517105 19.446846 0.826985 1.038099 -12.610515 1.225952 -1.093632 51.562500 8.076172 2.618559 -81.523438 -3.779297 8.475919 10.259682 -25.000000 14.368981 -9.620168 22.174328 -14.351869 -79.747910 -0.108189 -2.670187 -5.794750 17.674843 -5.261800 -10.679316 25.000000 14.118418 15.743617 -16.393200 -15.492930 89.260124 -0.361231 -2.997406 -8.098659 -55.186264 14.032625 -4.756227 12.665685 29.865347 6.189956 -5.775255 -0.949524 5.170065 1.197835 -5.388433 -7.157022 -2.704100 -16.122017 10.073117 5.641671 1.128454 -0.683421 -10.957293 0.911044 
-0.159967 52.647617 1.295166 -3.173828 2.626953 -135.673828 19.446846 0.826985 1.038099 -12.435349 1.228983 -1.085208 51.562500 8.076172 2.618559 -81.845703 -3.583984 8.583984 10.022211 -25.000000 14.116684 -9.270384 21.999504 -14.066238 -80.281372 0.223963 -2.756000 -5.465433 17.509418 -5.235788 -10.679316 25.000000 14.118418 15.192616 -15.874961 -14.759779 89.084366 -0.364498 -3.007356 -8.462216 -56.215492 13.501117 -5.586834 13.126465 29.387325 8.662201 -5.699101 -1.203636 3.969419 1.479815 -4.940556 -8.308240 -3.386865 -16.067368 12.378243 5.632849 0.891589 -0.670647 -10.411878 0.882835 
